<svg width="39" height="28" viewBox="0 0 39 28" fill="none" xmlns="http://www.w3.org/2000/svg">
<path d="M2.28447 0.149157C1.27418 0.511053 0.497608 1.29516 0.143251 2.32054C0.00753952 2.72013 0 3.09711 0 13.5695C0 24.1022 0.00753952 24.4113 0.143251 24.826C0.497608 25.8589 1.28172 26.643 2.32217 26.9974C2.7293 27.1331 3.18922 27.1406 19.3012 27.1406C35.4131 27.1406 35.873 27.1331 36.2802 26.9974C37.3206 26.643 38.1047 25.8589 38.4591 24.826C38.5948 24.4113 38.6023 24.1022 38.6023 13.5695C38.6023 3.03679 38.5948 2.72767 38.4591 2.313C38.1047 1.28008 37.3206 0.495974 36.2802 0.141617C35.873 0.00590515 35.4206 -0.0016346 19.271 0.00590515C3.29477 0.00590515 2.66145 0.0134449 2.28447 0.149157ZM27.9942 8.89499C21.6761 15.183 21.3142 15.5298 20.794 15.7861C20.1531 16.1028 19.5123 16.2083 18.8337 16.1179C18.5472 16.0802 18.1401 15.952 17.8083 15.7861C17.2881 15.5298 16.9262 15.183 10.6081 8.89499L3.95825 2.26776H19.3012H34.6441L27.9942 8.89499ZM7.61491 9.22673L11.9501 13.5695L7.10222 18.4174L2.26185 23.2578V13.6147V3.97923L2.77454 4.4316C3.0535 4.68795 5.23242 6.84425 7.61491 9.22673ZM36.3405 13.6223V23.2578L31.5001 18.4099L26.6522 13.5695L31.4473 8.7819C34.0862 6.15061 36.2651 3.99431 36.2877 3.99431C36.3178 3.99431 36.3405 8.32953 36.3405 13.6223ZM14.4005 16.0274C16.2627 17.9047 17.4163 18.4853 19.3012 18.4853C20.319 18.4853 21.0352 18.3194 21.8495 17.9123C22.5205 17.573 23.0408 17.1583 24.1038 16.1103L24.9483 15.281L25.6871 15.9671C26.0943 16.344 28.2732 18.5003 30.535 20.7622L34.6441 24.8788H19.3012H3.95825L8.75338 20.0912C11.3922 17.4599 13.5862 15.3036 13.6239 15.3036C13.6541 15.3036 14.0084 15.6278 14.4005 16.0274Z" fill="white"/>
</svg>
