<svg width="28" height="28" viewBox="0 0 28 28" fill="none" xmlns="http://www.w3.org/2000/svg">
<mask id="mask0_621_2142" style="mask-type:luminance" maskUnits="userSpaceOnUse" x="0" y="0" width="28" height="28">
<path d="M0 0H28V28H0V0Z" fill="white"/>
</mask>
<g mask="url(#mask0_621_2142)">
<path d="M18.668 4.66406H9.33497C8.0972 4.66406 6.91013 5.15576 6.0349 6.031C5.15967 6.90623 4.66797 8.0933 4.66797 9.33106V18.6641C4.66797 19.2769 4.78868 19.8838 5.02322 20.45C5.25776 21.0163 5.60153 21.5308 6.0349 21.9641C6.91013 22.8394 8.0972 23.3311 9.33497 23.3311H18.668C19.2808 23.3311 19.8877 23.2103 20.454 22.9758C21.0202 22.7413 21.5347 22.3975 21.968 21.9641C22.4014 21.5308 22.7452 21.0163 22.9797 20.45C23.2143 19.8838 23.335 19.2769 23.335 18.6641V9.33106C23.335 8.0933 22.8433 6.90623 21.968 6.031C21.0928 5.15576 19.9057 4.66406 18.668 4.66406Z" stroke="white" stroke-width="1.5" stroke-linecap="round" stroke-linejoin="round"/>
<path d="M14 17.5C14.9283 17.5 15.8185 17.1313 16.4749 16.4749C17.1313 15.8185 17.5 14.9283 17.5 14C17.5 13.0717 17.1313 12.1815 16.4749 11.5251C15.8185 10.8687 14.9283 10.5 14 10.5C13.0717 10.5 12.1815 10.8687 11.5251 11.5251C10.8687 12.1815 10.5 13.0717 10.5 14C10.5 14.9283 10.8687 15.8185 11.5251 16.4749C12.1815 17.1313 13.0717 17.5 14 17.5Z" stroke="white" stroke-width="1.5" stroke-linecap="round" stroke-linejoin="round"/>
</g>
</svg>
