<svg width="21" height="17" viewBox="0 0 21 17" fill="none" xmlns="http://www.w3.org/2000/svg">
<path d="M11.0243 1.54688H7.22334V15.2969H11.1603V8.99687C11.1603 7.32687 11.4753 5.72088 13.5363 5.72088C15.5963 5.72088 15.6013 7.61888 15.6013 9.10288V15.2979H19.5383V8.26688C19.5383 4.87188 18.8163 1.73888 14.8083 1.73888C13.3303 1.68288 11.8993 1.95388 11.1033 3.16088C11.0991 3.17206 11.0907 3.18123 11.08 3.18659C11.0693 3.19196 11.057 3.19313 11.0455 3.18987C11.034 3.18661 11.0241 3.17917 11.0177 3.16899C11.0114 3.15882 11.0091 3.14665 11.0113 3.13488L11.0243 1.54688ZM0.777344 1.54688H4.75034V15.2969H0.777344V1.54688Z" stroke="white" stroke-width="1.5" stroke-linecap="round" stroke-linejoin="round"/>
</svg>
