<svg width="38" height="44" viewBox="0 0 38 44" fill="none" xmlns="http://www.w3.org/2000/svg">
<path d="M7.94649 0.806882C7.39922 0.92445 6.74881 1.20473 6.17541 1.57943C5.29773 2.15937 2.13875 4.81405 1.63046 5.40004C1.12217 5.98604 0.666461 6.8293 0.392338 7.6674C0.161262 8.39179 -0.0296047 10.2696 0.0326516 11.2836C0.219828 14.5539 1.52234 18.7012 3.59663 22.6908C6.47581 28.2107 10.4424 33.1011 15.0157 36.7464C19.698 40.4815 24.0135 42.6363 27.5198 42.9927C29.312 43.1749 30.5172 42.9352 31.8176 42.1463C32.522 41.722 36.3022 38.5321 36.7168 38.0154C37.2127 37.3966 37.4858 36.7237 37.5658 35.9367C37.6504 35.1817 37.5887 34.7818 37.2953 34.0277C37.1029 33.5201 36.7631 33.0683 34.4485 30.2037C31.2449 26.2489 30.95 25.9749 29.5406 25.745C28.7981 25.6145 28.1932 25.6789 27.4555 25.9661C26.9401 26.1577 26.6007 26.3988 24.9035 27.7614L22.9402 29.341L22.3057 28.9222C20.7191 27.8793 18.7769 26.0759 17.1544 24.1476C15.0551 21.6433 13.5012 19.1945 12.75 17.2131L12.4777 16.4847L14.2967 15.0086C15.3353 14.1616 16.2695 13.3355 16.4858 13.0662C17.5025 11.8155 17.668 10.1869 16.9168 8.74867C16.5477 8.04201 11.7606 2.16286 11.1341 1.66619C10.4873 1.13599 9.8588 0.891041 8.97752 0.809339C8.58793 0.76974 8.12346 0.769765 7.94649 0.806882ZM9.54962 3.15835C10.0697 3.46313 14.8911 9.39299 15.1207 9.99889C15.3504 10.6048 15.2615 11.1704 14.8468 11.6872C14.693 11.8841 13.6925 12.7429 12.6289 13.6031C11.4966 14.5193 10.6069 15.2948 10.4952 15.4645C10.167 15.9822 10.2067 16.5216 10.6901 17.8067C11.5142 20.0002 12.8269 22.1884 14.8785 24.7743C16.9434 27.3853 19.049 29.3627 21.3292 30.8619C22.2151 31.4401 22.395 31.5292 22.7612 31.5664C22.9872 31.5894 23.32 31.5681 23.4907 31.5146C23.702 31.4495 24.4846 30.8756 25.8658 29.7564C27.1526 28.7143 28.0639 28.0354 28.2932 27.9485C28.8102 27.7412 29.4242 27.8194 29.8562 28.1388C30.0321 28.2669 31.3194 29.7754 32.7116 31.4914C35.4268 34.8297 35.5216 34.9811 35.4534 35.7299C35.3789 36.4623 35.1205 36.7588 33.1165 38.4288C30.546 40.5607 30.4531 40.6221 29.4217 40.8558C28.3264 41.0987 27.2363 40.9801 25.4207 40.4098C22.2925 39.4305 17.781 36.5709 14.3572 33.3888C9.66034 29.0225 5.75672 23.2804 3.70994 17.7034C1.81678 12.5514 1.63183 8.8719 3.17029 6.90273C3.62245 6.32677 7.53352 3.16599 7.99904 3.00074C8.48952 2.8223 9.10508 2.88487 9.54962 3.15835Z" fill="white"/>
</svg>
